<mxfile host="app.diagrams.net" modified="2021-07-20T07:10:20.243Z" agent="5.0 (X11; Linux x86_64) AppleWebKit/537.36 (KHTML, like Gecko) Chrome/91.0.4472.164 Safari/537.36" etag="99-pMg48mxxWxQEH4KHm" version="14.9.0" type="github">
  <diagram id="JH0VPGvFNMQIFzT6k2PX" name="Page-1">
    <mxGraphModel dx="1156" dy="1752" grid="1" gridSize="20" guides="1" tooltips="1" connect="1" arrows="1" fold="1" page="1" pageScale="1" pageWidth="850" pageHeight="1100" background="none" math="0" shadow="0">
      <root>
        <mxCell id="0" />
        <mxCell id="1" parent="0" />
        <mxCell id="12Cf1BJP307MrXzA9nm3-28" value="" style="edgeStyle=orthogonalEdgeStyle;rounded=0;orthogonalLoop=1;jettySize=auto;html=1;fontFamily=Times New Roman;fontSize=18;entryX=0;entryY=0.5;entryDx=0;entryDy=0;align=center;exitX=0;exitY=0.173;exitDx=0;exitDy=0;exitPerimeter=0;" parent="1" source="AmMvR50S3dezlGgRcB2A-10" target="12Cf1BJP307MrXzA9nm3-31" edge="1">
          <mxGeometry relative="1" as="geometry">
            <mxPoint x="266" y="280" as="targetPoint" />
            <Array as="points">
              <mxPoint x="513" y="-162" />
              <mxPoint x="71" y="-162" />
              <mxPoint x="71" y="270" />
            </Array>
            <mxPoint x="346" y="-200" as="sourcePoint" />
          </mxGeometry>
        </mxCell>
        <mxCell id="AmMvR50S3dezlGgRcB2A-13" style="edgeStyle=orthogonalEdgeStyle;rounded=0;orthogonalLoop=1;jettySize=auto;html=1;" edge="1" parent="1" target="AmMvR50S3dezlGgRcB2A-10">
          <mxGeometry relative="1" as="geometry">
            <mxPoint x="687" y="-162" as="sourcePoint" />
            <mxPoint x="629" y="-175" as="targetPoint" />
            <Array as="points">
              <mxPoint x="687" y="-162" />
            </Array>
          </mxGeometry>
        </mxCell>
        <mxCell id="12Cf1BJP307MrXzA9nm3-8" value="Open API Specification&lt;br style=&quot;font-size: 18px;&quot;&gt;(Swagger)" style="shape=image;verticalAlign=top;verticalLabelPosition=bottom;labelBackgroundColor=#ffffff;imageAspect=0;aspect=fixed;image=https://cdn4.iconfinder.com/data/icons/48-bubbles/48/12.File-128.png;align=center;horizontal=1;fontStyle=1;fontSize=18;labelBorderColor=none;html=1;fontFamily=Times New Roman;" parent="1" vertex="1">
          <mxGeometry x="687.5" y="-220" width="90" height="90" as="geometry" />
        </mxCell>
        <mxCell id="12Cf1BJP307MrXzA9nm3-16" value="" style="edgeStyle=orthogonalEdgeStyle;rounded=0;orthogonalLoop=1;jettySize=auto;html=1;fontFamily=Times New Roman;fontSize=18;align=center;" parent="1" source="12Cf1BJP307MrXzA9nm3-10" target="12Cf1BJP307MrXzA9nm3-15" edge="1">
          <mxGeometry relative="1" as="geometry">
            <Array as="points">
              <mxPoint x="446" y="84" />
              <mxPoint x="446" y="84" />
            </Array>
          </mxGeometry>
        </mxCell>
        <mxCell id="12Cf1BJP307MrXzA9nm3-21" value="Automatic Dependency Finder&amp;nbsp;" style="edgeLabel;html=1;align=center;verticalAlign=middle;resizable=0;points=[];fontSize=18;fontFamily=Times New Roman;" parent="12Cf1BJP307MrXzA9nm3-16" vertex="1" connectable="0">
          <mxGeometry x="-0.2591" y="-1" relative="1" as="geometry">
            <mxPoint x="31" y="-16" as="offset" />
          </mxGeometry>
        </mxCell>
        <mxCell id="12Cf1BJP307MrXzA9nm3-19" style="edgeStyle=orthogonalEdgeStyle;rounded=0;orthogonalLoop=1;jettySize=auto;html=1;exitX=0.5;exitY=1;exitDx=0;exitDy=0;fontFamily=Times New Roman;fontSize=18;entryX=0.25;entryY=1;entryDx=0;entryDy=0;align=center;" parent="1" source="12Cf1BJP307MrXzA9nm3-10" target="12Cf1BJP307MrXzA9nm3-15" edge="1">
          <mxGeometry relative="1" as="geometry">
            <mxPoint x="586" y="125" as="targetPoint" />
            <Array as="points">
              <mxPoint x="288" y="160" />
              <mxPoint x="688" y="160" />
            </Array>
          </mxGeometry>
        </mxCell>
        <mxCell id="12Cf1BJP307MrXzA9nm3-20" value="-r : Raw Configuration" style="edgeLabel;html=1;align=center;verticalAlign=middle;resizable=0;points=[];fontSize=18;fontFamily=Times New Roman;" parent="12Cf1BJP307MrXzA9nm3-19" vertex="1" connectable="0">
          <mxGeometry x="0.1589" y="-1" relative="1" as="geometry">
            <mxPoint x="-43" y="-21" as="offset" />
          </mxGeometry>
        </mxCell>
        <mxCell id="12Cf1BJP307MrXzA9nm3-10" value="&lt;span style=&quot;font-size: 18px ; font-weight: normal&quot;&gt;&lt;font style=&quot;font-size: 18px&quot;&gt;Operation Dependency Graph Configuration Generator&lt;/font&gt;&lt;/span&gt;" style="rounded=1;whiteSpace=wrap;html=1;absoluteArcSize=1;arcSize=14;strokeWidth=2;fontFamily=Times New Roman;fontSize=18;align=center;verticalAlign=top;fontStyle=1" parent="1" vertex="1">
          <mxGeometry x="206" y="25" width="165" height="100" as="geometry" />
        </mxCell>
        <mxCell id="12Cf1BJP307MrXzA9nm3-23" value="" style="edgeStyle=orthogonalEdgeStyle;rounded=0;orthogonalLoop=1;jettySize=auto;html=1;fontFamily=Times New Roman;fontSize=18;entryX=0.5;entryY=0;entryDx=0;entryDy=0;align=center;" parent="1" source="12Cf1BJP307MrXzA9nm3-15" target="12Cf1BJP307MrXzA9nm3-25" edge="1">
          <mxGeometry relative="1" as="geometry">
            <mxPoint x="727.5" y="261.25" as="targetPoint" />
          </mxGeometry>
        </mxCell>
        <mxCell id="12Cf1BJP307MrXzA9nm3-15" value="ODG.json&lt;br&gt;Includes Dependencies for Each Field of Each API Routes" style="rounded=1;whiteSpace=wrap;html=1;fontFamily=Times New Roman;fontSize=18;verticalAlign=top;strokeWidth=2;arcSize=14;align=center;" parent="1" vertex="1">
          <mxGeometry x="649" y="12.5" width="157" height="127.5" as="geometry" />
        </mxCell>
        <mxCell id="12Cf1BJP307MrXzA9nm3-30" value="" style="edgeStyle=orthogonalEdgeStyle;rounded=0;orthogonalLoop=1;jettySize=auto;html=1;fontFamily=Times New Roman;fontSize=18;entryX=1;entryY=0.5;entryDx=0;entryDy=0;align=center;" parent="1" source="12Cf1BJP307MrXzA9nm3-25" target="12Cf1BJP307MrXzA9nm3-31" edge="1">
          <mxGeometry relative="1" as="geometry">
            <mxPoint x="548" y="280" as="targetPoint" />
            <Array as="points">
              <mxPoint x="606" y="270" />
              <mxPoint x="606" y="270" />
            </Array>
          </mxGeometry>
        </mxCell>
        <mxCell id="12Cf1BJP307MrXzA9nm3-25" value="Modify&amp;nbsp;" style="shape=image;html=1;verticalAlign=top;verticalLabelPosition=bottom;labelBackgroundColor=#ffffff;imageAspect=0;aspect=fixed;image=https://cdn3.iconfinder.com/data/icons/streamline-icon-set-free-pack/48/Streamline-22-128.png;fontFamily=Times New Roman;fontSize=18;align=center;" parent="1" vertex="1">
          <mxGeometry x="677.5" y="220" width="100" height="100" as="geometry" />
        </mxCell>
        <mxCell id="12Cf1BJP307MrXzA9nm3-35" value="" style="edgeStyle=orthogonalEdgeStyle;rounded=0;orthogonalLoop=1;jettySize=auto;html=1;fontFamily=Times New Roman;fontSize=18;align=center;" parent="1" source="12Cf1BJP307MrXzA9nm3-31" target="12Cf1BJP307MrXzA9nm3-34" edge="1">
          <mxGeometry relative="1" as="geometry" />
        </mxCell>
        <mxCell id="12Cf1BJP307MrXzA9nm3-31" value="Test Case Generator&lt;br&gt;Initiator Module" style="rounded=1;whiteSpace=wrap;html=1;fontFamily=Times New Roman;fontSize=18;align=center;verticalAlign=top;" parent="1" vertex="1">
          <mxGeometry x="356" y="240" width="195" height="60" as="geometry" />
        </mxCell>
        <mxCell id="12Cf1BJP307MrXzA9nm3-32" value="Input" style="text;html=1;align=center;verticalAlign=middle;resizable=0;points=[];autosize=1;strokeColor=none;fontSize=18;fontFamily=Times New Roman;" parent="1" vertex="1">
          <mxGeometry x="289" y="240" width="60" height="40" as="geometry" />
        </mxCell>
        <mxCell id="12Cf1BJP307MrXzA9nm3-33" value="Input" style="text;html=1;align=center;verticalAlign=middle;resizable=0;points=[];autosize=1;strokeColor=none;fontSize=18;fontFamily=Times New Roman;" parent="1" vertex="1">
          <mxGeometry x="551" y="240" width="60" height="40" as="geometry" />
        </mxCell>
        <mxCell id="12Cf1BJP307MrXzA9nm3-37" value="" style="edgeStyle=orthogonalEdgeStyle;rounded=0;orthogonalLoop=1;jettySize=auto;html=1;fontFamily=Times New Roman;fontSize=18;align=center;" parent="1" source="12Cf1BJP307MrXzA9nm3-34" target="12Cf1BJP307MrXzA9nm3-36" edge="1">
          <mxGeometry relative="1" as="geometry" />
        </mxCell>
        <mxCell id="12Cf1BJP307MrXzA9nm3-34" value="Nominal Test Case Generator" style="rounded=1;whiteSpace=wrap;html=1;fontFamily=Times New Roman;fontSize=18;verticalAlign=top;align=center;" parent="1" vertex="1">
          <mxGeometry x="376" y="360" width="155" height="60" as="geometry" />
        </mxCell>
        <mxCell id="12Cf1BJP307MrXzA9nm3-39" value="" style="edgeStyle=orthogonalEdgeStyle;rounded=0;orthogonalLoop=1;jettySize=auto;html=1;fontFamily=Times New Roman;fontSize=18;align=center;" parent="1" source="12Cf1BJP307MrXzA9nm3-36" target="12Cf1BJP307MrXzA9nm3-38" edge="1">
          <mxGeometry relative="1" as="geometry" />
        </mxCell>
        <mxCell id="12Cf1BJP307MrXzA9nm3-36" value="Error Test Case Generator" style="whiteSpace=wrap;html=1;rounded=1;fontFamily=Times New Roman;fontSize=18;verticalAlign=top;align=center;" parent="1" vertex="1">
          <mxGeometry x="376" y="480" width="154.5" height="60" as="geometry" />
        </mxCell>
        <mxCell id="12Cf1BJP307MrXzA9nm3-44" style="edgeStyle=orthogonalEdgeStyle;rounded=0;orthogonalLoop=1;jettySize=auto;html=1;entryX=1;entryY=0.5;entryDx=0;entryDy=0;fontFamily=Times New Roman;fontSize=18;align=center;" parent="1" source="12Cf1BJP307MrXzA9nm3-38" target="12Cf1BJP307MrXzA9nm3-43" edge="1">
          <mxGeometry relative="1" as="geometry">
            <Array as="points">
              <mxPoint x="346" y="584" />
              <mxPoint x="346" y="584" />
            </Array>
          </mxGeometry>
        </mxCell>
        <mxCell id="12Cf1BJP307MrXzA9nm3-38" value="Evaluation" style="whiteSpace=wrap;html=1;rounded=1;fontFamily=Times New Roman;fontSize=18;verticalAlign=top;align=center;" parent="1" vertex="1">
          <mxGeometry x="393" y="564" width="120" height="40" as="geometry" />
        </mxCell>
        <mxCell id="12Cf1BJP307MrXzA9nm3-43" value="" style="shape=image;html=1;verticalAlign=top;verticalLabelPosition=bottom;labelBackgroundColor=#ffffff;imageAspect=0;aspect=fixed;image=https://cdn2.iconfinder.com/data/icons/xomo-basics/128/document-03-128.png;fontFamily=Times New Roman;fontSize=18;fontStyle=1;align=center;" parent="1" vertex="1">
          <mxGeometry x="146" y="520" width="128" height="128" as="geometry" />
        </mxCell>
        <mxCell id="12Cf1BJP307MrXzA9nm3-46" value="&lt;meta charset=&quot;utf-8&quot;&gt;&lt;span style=&quot;color: rgb(0, 0, 0); font-family: &amp;quot;times new roman&amp;quot;; font-size: 18px; font-style: normal; font-weight: 700; letter-spacing: normal; text-indent: 0px; text-transform: none; word-spacing: 0px; background-color: rgb(248, 249, 250); display: inline; float: none;&quot;&gt;Generated Test Cases and Evaluations&lt;/span&gt;" style="text;whiteSpace=wrap;html=1;fontSize=18;fontFamily=Times New Roman;align=center;" parent="1" vertex="1">
          <mxGeometry x="134" y="648" width="152" height="60" as="geometry" />
        </mxCell>
        <mxCell id="12Cf1BJP307MrXzA9nm3-47" value="&lt;font style=&quot;font-size: 29px;&quot;&gt;&lt;b style=&quot;font-size: 29px;&quot;&gt;RESTester&lt;/b&gt; : Automated Black-box Tester of RESTful APIs&lt;/font&gt;" style="text;html=1;align=center;verticalAlign=middle;resizable=0;points=[];autosize=1;strokeColor=none;fontSize=29;fontFamily=Times New Roman;" parent="1" vertex="1">
          <mxGeometry x="74" y="760" width="720" height="40" as="geometry" />
        </mxCell>
        <mxCell id="AmMvR50S3dezlGgRcB2A-10" value="&lt;font&gt;&lt;span style=&quot;font-size: 15px&quot;&gt;Open API Specification&lt;/span&gt;&lt;br&gt;&lt;span style=&quot;font-size: 15px&quot;&gt;(Swagger)&lt;/span&gt;&lt;br&gt;&lt;font style=&quot;font-size: 16px&quot;&gt;Parser and Validation&amp;nbsp;&lt;/font&gt;&lt;/font&gt;" style="whiteSpace=wrap;html=1;aspect=fixed;rounded=1;fontStyle=0" vertex="1" parent="1">
          <mxGeometry x="448.5" y="-220" width="115.5" height="115.5" as="geometry" />
        </mxCell>
        <mxCell id="AmMvR50S3dezlGgRcB2A-17" style="edgeStyle=orthogonalEdgeStyle;rounded=0;orthogonalLoop=1;jettySize=auto;html=1;exitX=1;exitY=0.25;exitDx=0;exitDy=0;entryX=0;entryY=0.5;entryDx=0;entryDy=0;" edge="1" parent="1" source="AmMvR50S3dezlGgRcB2A-15" target="12Cf1BJP307MrXzA9nm3-10">
          <mxGeometry relative="1" as="geometry">
            <mxPoint x="109" y="80" as="targetPoint" />
            <Array as="points">
              <mxPoint x="109" y="-133" />
              <mxPoint x="109" y="75" />
            </Array>
          </mxGeometry>
        </mxCell>
        <mxCell id="AmMvR50S3dezlGgRcB2A-15" value="&lt;font style=&quot;font-size: 16px&quot;&gt;Load and Derive Metadata from Specification&lt;/font&gt;" style="whiteSpace=wrap;html=1;aspect=fixed;direction=west;glass=0;rounded=1;" vertex="1" parent="1">
          <mxGeometry x="206" y="-220" width="115.5" height="115.5" as="geometry" />
        </mxCell>
        <mxCell id="AmMvR50S3dezlGgRcB2A-18" value="Input" style="text;html=1;align=center;verticalAlign=middle;resizable=0;points=[];autosize=1;strokeColor=none;fontSize=18;fontFamily=Times New Roman;" vertex="1" parent="1">
          <mxGeometry x="146" y="40" width="60" height="40" as="geometry" />
        </mxCell>
      </root>
    </mxGraphModel>
  </diagram>
</mxfile>
